HIERARCHY
ROOT pelvis
{
  OFFSET 0 100 0
  CHANNELS 6 Xposition Yposition Zposition Zrotation Xrotation Yrotation
  JOINT pelvis_right_femur
  {
    OFFSET -10.78128 -3.44521 -0.5502486
    CHANNELS 3 Zrotation Xrotation Yrotation
    JOINT right_femur_tibia
    {
      OFFSET -0.8047443 -44.0398 -0.1307829
      CHANNELS 3 Zrotation Xrotation Yrotation
      JOINT right_tibia_foot
      {
        OFFSET 3.006224 -47.83518 -5
        CHANNELS 3 Zrotation Xrotation Yrotation
        End Site
        {
          OFFSET 0 -5 15
        }
      }
    }
  }
  JOINT pelvis_left_femur
  {
    OFFSET 10.78128 -3.44521 -0.5502486
    CHANNELS 3 Zrotation Xrotation Yrotation
    JOINT left_femur_tibia
    {
      OFFSET 0.8047443 -44.0398 -0.1307829
      CHANNELS 3 Zrotation Xrotation Yrotation
      JOINT left_tibia_foot
      {
        OFFSET -4.370144 -48.10324 -4.275266
        CHANNELS 3 Zrotation Xrotation Yrotation
        End Site
        {
          OFFSET 0 -5 15
        }
      }
    }
  }
  JOINT pelvis_spine1
  {
    OFFSET 0 6.468898 -3.129235
    CHANNELS 3 Zrotation Xrotation Yrotation
    JOINT spine1
    {
      OFFSET 0 23.15396 4.99043
      CHANNELS 3 Zrotation Xrotation Yrotation
      JOINT spine2
      {
        OFFSET 0 20.79997 -5.064912
        CHANNELS 3 Zrotation Xrotation Yrotation
        JOINT neck
        {
          OFFSET 0 14.38658 9.616178
          CHANNELS 3 Zrotation Xrotation Yrotation
          End Site
          {
            OFFSET 0 20 0
          }
        }
      }
      JOINT right_manubrium
      {
        OFFSET -5.722621 16.35077 3.967754
        CHANNELS 3 Zrotation Xrotation Yrotation
        JOINT right_clavicle
        {
          OFFSET -13.16364 1.694482 -4.693211
          CHANNELS 3 Zrotation Xrotation Yrotation
          JOINT right_humerus
          {
            OFFSET -28.5034 -0.3100689 -2.792744
            CHANNELS 3 Zrotation Xrotation Yrotation
            JOINT right_radius
            {
              OFFSET -25.15693 0.02248979 -1.271978
              CHANNELS 3 Zrotation Xrotation Yrotation
              End Site
              {
                OFFSET -15 0 0
              }
            }
          }
        }
      }
      JOINT left_manubrium
      {
        OFFSET 5.722621 16.35077 3.967754
        CHANNELS 3 Zrotation Xrotation Yrotation
        JOINT left_clavicle
        {
          OFFSET 13.16364 1.694482 -4.693211
          CHANNELS 3 Zrotation Xrotation Yrotation
          JOINT left_humerus
          {
            OFFSET 29.39168 -1.063119 -2.237045
            CHANNELS 3 Zrotation Xrotation Yrotation
            JOINT left_radius
            {
              OFFSET 24.59957 -0.9528479 0.9047498
              CHANNELS 3 Zrotation Xrotation Yrotation
              End Site
              {
                OFFSET 15 -0 -0
              }
            }
          }
        }
      }
    }
  }
}
MOTION
Frames: 19
Frame Time: 0.0416666666667
61.89948 101.1404 251.7831 4.390424 -7.921553 8.769285 -1.574815 22.60674 7.54543 -0 27.51317 -0 6.139945 -12.37255 -0.821139 -2.649327 -22.1048 -6.952489 -0 25.43184 -0 -7.894082 -6.805137 18.55002 -1.58018 -1.320153 9.615738 -2.372007 9.781279 -2.136915 2.544209 21.85863 3.931607 1.410832 -14.48651 6.197433 0.811276 -21.47167 10.8225 82.41555 19.79236 -6.776033 -0 0 26.84637 -23.18726 10.23815 12.60871 4.48164 -13.34753 -3.045306 -93.96879 23.57769 25.60929 0 0 -9.229949 -4.443951 5.242495 18.51051
64.14297 101.4572 258.4257 4.700392 -8.133828 9.368182 -2.090245 20.51281 6.907692 -0 34.11926 -0 6.138114 -10.99783 -1.615433 -3.998241 -18.5133 -8.03797 -0 25.23483 -0 -7.547361 -7.549981 18.05929 -1.960228 -1.514845 9.14531 -2.346356 9.606554 -2.277615 2.599316 22.08946 3.956065 1.256725 -14.42399 6.437335 1.068217 -20.69439 10.59834 83.16926 19.84262 -7.68926 -0 0 25.34484 -22.82864 10.24311 12.14985 4.306355 -13.2538 -3.171472 -93.16348 24.06472 24.54143 0 0 -9.029619 -4.39838 5.337105 18.55844
66.33078 102.1758 264.8602 5.01653 -8.467918 10.29849 -2.338865 17.0825 6.107091 -0 40.33547 -0 5.912894 -9.775623 -2.67293 -5.139117 -14.09481 -8.892458 -0 25.12696 -0 -7.170909 -8.571814 17.56403 -2.307321 -1.491101 8.437019 -2.229748 9.506659 -2.546929 2.610686 22.42253 4.022183 1.085649 -14.29477 6.695841 1.397937 -19.75437 10.41368 84.13487 20.05009 -8.993049 -0 0 23.35896 -22.31571 10.31622 11.55895 4.184094 -13.48813 -3.354504 -91.94918 24.59642 22.75164 0 0 -9.408204 -4.180092 5.532585 18.35978
68.42784 103.1646 270.9792 5.256545 -8.804809 11.51184 -2.325858 12.44406 5.236151 -0 44.95637 -0 5.50486 -8.899497 -3.82002 -5.933045 -9.166432 -9.480839 -0 24.62053 -0 -6.823673 -9.773867 17.04394 -2.554364 -1.274008 7.491276 -2.018915 9.418206 -2.989972 2.592255 22.82096 4.131246 0.9032501 -14.10545 6.985513 1.658107 -18.74769 10.21689 85.25587 20.35505 -10.54141 -0 0 21.21141 -21.6852 10.42108 10.91963 4.149545 -13.99383 -3.590009 -90.40043 25.1258 20.30676 0 0 -10.34756 -3.79671 5.827263 17.91717
70.41888 104.2246 276.7526 5.382867 -9.046952 12.91548 -2.136303 6.884457 4.397478 -0 47.17955 -0 4.939589 -8.423756 -4.934198 -6.36309 -4.016766 -9.844782 -0 23.52288 -0 -6.543535 -11.07568 16.47781 -2.685249 -0.9282125 6.35951 -1.720956 9.290414 -3.616179 2.567296 23.24279 4.268946 0.7223107 -13.87489 7.304939 1.753852 -17.73334 9.967745 86.46575 20.70003 -12.2258 -0 0 19.11897 -20.97614 10.52559 10.28547 4.224705 -14.70585 -3.861523 -88.60964 25.6052 17.32229 0 0 -11.79032 -3.267447 6.212943 17.24789
72.30608 105.1393 282.2355 5.427305 -9.104313 14.41533 -1.945183 0.9202393 3.679247 -0 46.59037 -0 4.224072 -8.243716 -5.95512 -6.520159 1.058001 -10.06414 -0 21.98031 -0 -6.339599 -12.44202 15.84926 -2.75665 -0.5588006 5.166899 -1.357957 9.084422 -4.384862 2.574797 23.63423 4.394044 0.5670455 -13.64072 7.628659 1.639243 -16.72594 9.634786 87.66935 21.02744 -13.97701 -0 0 17.16802 -20.23098 10.59846 9.668339 4.425822 -15.55806 -4.130653 -86.68519 25.99686 13.97234 0 0 -13.65058 -2.622191 6.6797 16.37556
74.10777 105.7114 287.5507 5.437968 -8.909591 15.92717 -1.906488 -4.891457 3.114145 -0 43.11895 -0 3.3649 -8.211851 -6.856406 -6.518226 5.798339 -10.20476 -0 20.28751 -0 -6.209803 -13.85199 15.15384 -2.846287 -0.2641614 4.054814 -0.9583449 8.777097 -5.228247 2.651387 23.94608 4.46068 0.4613125 -13.44433 7.922911 1.310312 -15.72144 9.206056 88.77209 21.29439 -15.74228 -0 0 15.36959 -19.48511 10.61598 9.057982 4.758011 -16.49028 -4.352459 -84.73673 26.2805 10.45239 0 0 -15.82408 -1.892461 7.215676 15.32973
75.84601 105.8138 292.8321 5.431382 -8.483001 17.37339 -2.026108 -10.17586 2.665254 -0 37.3679 -0 2.382886 -8.26778 -7.637793 -6.430682 10.06795 -10.28763 -0 18.77153 -0 -6.156981 -15.24949 14.42196 -2.980734 -0.07051107 3.114194 -0.5500756 8.381433 -6.05411 2.798616 24.16124 4.449646 0.4090746 -13.31543 8.161358 0.8388373 -14.72353 8.727185 89.73007 21.49581 -17.46341 -0 0 13.67415 -18.7445 10.57961 8.429438 5.18731 -17.45552 -4.493031 -82.86773 26.45149 6.957467 0 0 -18.16408 -1.104235 7.801007 14.15965
77.53233 105.447 298.1805 5.407913 -7.925392 18.68142 -2.182457 -14.66186 2.272999 -0 30.58962 -0 1.309883 -8.439091 -8.315582 -6.29814 13.80599 -10.29668 -0 17.84009 -0 -6.191647 -16.5226 13.72307 -3.13153 0.05544403 2.402911 -0.1610488 7.943686 -6.73483 2.985253 24.28834 4.363837 0.3966429 -13.27953 8.320312 0.3686123 -13.75069 8.299192 90.5392 21.65641 -19.06203 -0 0 11.98051 -17.98611 10.51198 7.740645 5.637894 -18.40852 -4.524297 -81.19242 26.52097 3.714252 0 0 -20.45965 -0.283025 8.408819 12.9399
79.16725 104.7255 303.6657 5.357964 -7.351626 19.78992 -2.233158 -18.17172 1.930932 -0 24.00763 -0 0.1828875 -8.740875 -8.904216 -6.127739 16.97836 -10.22068 -0 17.83046 -0 -6.321982 -17.53481 13.13049 -3.250725 0.1456792 1.933232 0.1914616 7.514388 -7.184203 3.177916 24.35057 4.215753 0.408217 -13.3464 8.387812 0.01553277 -12.83007 7.999762 91.21075 21.80359 -20.46462 -0 0 10.23192 -17.19166 10.43504 6.971938 6.037219 -19.29494 -4.437319 -79.80869 26.52044 0.9219469 0 0 -22.50728 0.541252 9.01383 11.7468
80.75313 103.8269 309.3518 5.247479 -6.877567 20.67108 -2.036338 -20.55754 1.744229 -0 18.64014 -0 -0.944758 -9.089513 -9.393999 -5.863472 19.51662 -10.09066 -0 19.00773 -0 -6.559034 -18.08049 12.72433 -3.276246 0.1889783 1.649583 0.5035729 7.139811 -7.406463 3.35668 24.39046 4.022186 0.4340176 -13.49874 8.369564 -0.1823882 -12 7.842286 91.75714 21.95292 -21.59319 -0 0 8.498528 -16.37071 10.36125 6.161911 6.328454 -20.01681 -4.253297 -78.81975 26.50282 -1.23085 0 0 -24.09689 1.319468 9.591938 10.66501
82.30459 102.9602 315.3083 5.034986 -6.622198 21.34609 -1.45289 -21.65644 1.878521 -0 15.37182 -0 -2.006703 -9.344784 -9.751824 -5.410872 21.29891 -9.967626 -0 21.61763 -0 -6.912334 -17.90876 12.5998 -3.140646 0.1502028 1.462009 0.7766312 6.864926 -7.457727 3.510792 24.46336 3.801242 0.4685638 -13.70241 8.28102 -0.2327996 -11.30949 7.803951 92.18278 22.11219 -22.35605 -0 0 6.936753 -15.55403 10.29801 5.388729 6.4604 -20.44587 -4.012846 -78.34072 26.53225 -2.548311 0 0 -24.99997 1.985189 10.12099 9.790065
83.84469 102.3226 321.5759 4.736367 -6.653018 21.85263 -0.4763726 -21.40431 2.376229 -0 14.37913 -0 -2.965169 -9.469684 -9.950968 -4.765981 22.16812 -9.877177 -0 25.69444 -0 -7.346426 -16.95092 12.82822 -2.836354 0.04042333 1.334532 1.009524 6.72024 -7.384181 3.636722 24.60585 3.567184 0.5090731 -13.92407 8.138916 -0.1639559 -10.80891 7.861043 92.46263 22.28651 -22.68481 -0 0 5.684828 -14.78942 10.24334 4.72618 6.411186 -20.52505 -3.757169 -78.41916 26.65017 -2.945543 0 0 -25.09603 2.486488 10.59146 9.181219
85.39336 102.0443 328.0961 4.451111 -6.994574 22.18928 0.7148732 -19.80913 3.099515 -0 14.96656 -0 -3.820626 -9.594124 -9.976868 -4.082247 21.82909 -9.774594 -0 31.04757 -0 -7.753148 -15.37495 13.47031 -2.439986 -0.04385777 1.321478 1.192834 6.731395 -7.200448 3.734955 24.83636 3.332038 0.5547266 -14.12886 7.960316 -0.01849869 -10.57335 8.003183 92.51484 22.48089 -22.50566 -0 0 4.875464 -14.16084 10.18085 4.254344 6.188535 -20.283 -3.529519 -79.04881 26.86504 -2.433859 0 0 -24.35541 2.778898 11.00249 8.867949
86.95528 102.1698 334.7017 4.28769 -7.629374 22.30158 1.87918 -16.94759 3.845451 -0 16.14456 -0 -4.586297 -9.890139 -9.827936 -3.552061 20.00298 -9.593017 -0 37.29932 -0 -8.019853 -13.44849 14.54255 -2.056716 0.009979287 1.500703 1.313626 6.907899 -6.905132 3.807621 25.15697 3.106497 0.6054519 -14.28903 7.761548 0.1587476 -10.66956 8.226129 92.25355 22.69393 -21.76275 -0 0 4.611174 -13.75606 10.09133 4.043684 5.822052 -19.78963 -3.363153 -80.19669 27.15368 -1.080168 0 0 -22.81577 2.83364 11.35646 8.854205
88.51508 102.6715 341.1962 4.278828 -8.443311 22.14081 2.828754 -13.03868 4.455299 -0 17.1679 -0 -5.255128 -10.41569 -9.514798 -3.251926 16.69765 -9.324501 -0 43.67131 -0 -8.100941 -11.45031 15.93796 -1.768881 0.2314041 1.893705 1.360634 7.203291 -6.495165 3.85761 25.53696 2.900966 0.6603319 -14.40382 7.558315 0.3272862 -11.09339 8.517965 91.66798 22.90599 -20.48294 -0 0 4.899377 -13.62305 9.963146 4.123596 5.376008 -19.1362 -3.258675 -81.78592 27.45639 0.9752968 0 0 -20.63237 2.667155 11.65851 9.093989
90.04543 103.4432 347.4277 4.403595 -9.214674 21.73625 3.421617 -8.429378 4.817983 -0 17.45346 -0 -5.79279 -11.1224 -9.047297 -3.157911 12.15358 -9.024765 -0 48.85541 -0 -7.977437 -9.698323 17.4365 -1.646828 0.5706056 2.472197 1.321513 7.511852 -5.964494 3.886678 25.912 2.729656 0.7170055 -14.49698 7.368972 0.4403049 -11.78356 8.854873 90.81047 23.08012 -18.75829 -0 0 5.682614 -13.78918 9.785514 4.502614 4.954125 -18.43711 -3.190602 -83.689 27.68955 3.524328 0 0 -18.0695 2.335176 11.91582 9.494887
91.52776 104.3122 353.3144 4.615386 -9.757607 21.18318 3.623448 -3.465036 4.899861 -0 16.72339 -0 -6.17749 -11.93557 -8.433227 -3.191554 6.715395 -8.755377 -0 51.74455 -0 -7.646704 -8.407563 18.8514 -1.710654 0.9534275 3.177841 1.194863 7.739366 -5.322882 3.889402 26.22347 2.609006 0.7707256 -14.59702 7.208094 0.4588801 -12.67567 9.203278 89.75424 23.18133 -16.69592 -0 0 6.891889 -14.25616 9.551369 5.175656 4.643527 -17.77468 -3.128115 -85.77114 27.78512 6.369823 0 0 -15.37157 1.903428 12.13575 9.966034
92.97197 105.0752 358.853 4.810498 -9.995314 20.56951 3.54437 1.530479 4.719987 -0 15.15213 -0 -6.431691 -12.79327 -7.676525 -3.199548 0.8490113 -8.537032 -0 51.69584 -0 -7.158864 -7.612182 20.10672 -1.882659 1.29857 3.905621 1.000748 7.836644 -4.61872 3.841447 26.43295 2.565415 0.8107223 -14.73349 7.084892 0.3501502 -13.73556 9.507205 88.57564 23.18583 -14.39726 -0 0 8.484554 -14.99851 9.260998 6.137966 4.493896 -17.16204 -3.032967 -87.90463 27.70172 9.363537 0 0 -12.71353 1.444818 12.32591 10.4334
